<?xml version="1.0" standalone="no"?>
<!DOCTYPE svg PUBLIC "-//W3C//DTD SVG 20010904//EN"
 "http://www.w3.org/TR/2001/REC-SVG-20010904/DTD/svg10.dtd">
<svg version="1.0" xmlns="http://www.w3.org/2000/svg"
 width="500.000000pt" height="500.000000pt" viewBox="0 0 500.000000 500.000000"
 preserveAspectRatio="xMidYMid meet">

<g transform="translate(0.000000,500.000000) scale(0.100000,-0.100000)"
fill="#000000" stroke="none">
<path d="M2580 2738 l0 -135 89 -5 c115 -7 167 -34 202 -105 21 -44 23 -67 30
-278 4 -126 13 -248 19 -270 34 -115 135 -239 237 -293 29 -15 53 -29 53 -32
-1 -3 -24 -16 -53 -29 -68 -32 -165 -130 -200 -204 -44 -91 -57 -172 -57 -359
0 -92 -5 -190 -11 -217 -23 -109 -86 -156 -226 -167 l-83 -7 0 -128 0 -129 98
0 c287 1 447 107 507 340 12 45 19 133 24 290 7 182 11 234 26 270 57 140 138
200 269 200 l46 0 0 139 0 139 -62 7 c-73 8 -142 36 -179 71 -15 14 -42 58
-59 97 l-33 71 -8 230 c-9 244 -19 309 -64 401 -73 152 -197 215 -452 231
l-113 7 0 -135z"/>
</g>
</svg>
